<?xml version="1.0" encoding="UTF-8" standalone="no"?>
<svg width="40px" height="40px" viewBox="0 0 40 40" version="1.1" xmlns="http://www.w3.org/2000/svg" xmlns:xlink="http://www.w3.org/1999/xlink" xmlns:sketch="http://www.bohemiancoding.com/sketch/ns">
    <!-- Generator: Sketch 3.0.4 (8053) - http://www.bohemiancoding.com/sketch -->
    <title>Moon</title>
    <desc>Created with Sketch.</desc>
    <defs></defs>
    <g id="Page-1" stroke="none" stroke-width="1" fill="none" fill-rule="evenodd" sketch:type="MSPage">
        <path d="M16.062,4.49 C16.021,4.9895 16,5.493 16,6 C16,15.926 24.074,24 34,24 C34.507,24 35.0105,23.9795 35.51,23.938 C33.7505,30.8625 27.464,36 20,36 C11.1775,36 4,28.8225 4,20 C4,12.536 9.1375,6.2495 16.062,4.49 L16.062,4.49 Z M20,0 C8.9545,0 0,8.9545 0,20 C0,31.046 8.9545,40 20,40 C31.046,40 40,31.046 40,20 C40,19.5535 39.98,19.1125 39.951,18.673 C38.145,19.5225 36.1285,20 34,20 C26.268,20 20,13.732 20,6 C20,3.8715 20.4775,1.855 21.327,0.049 C20.8875,0.02 20.4465,0 20,0 L20,0 L20,0 Z" id="Shape" fill="#000000" sketch:type="MSShapeGroup"></path>
    </g>
</svg>